<svg viewBox="0 0 16 16" xmlns="http://www.w3.org/2000/svg">
  <defs>
    <linearGradient id="grad" x1="0%" y1="0%" x2="100%" y2="100%">
      <stop offset="0%" style="stop-color:#C9B896"/>
      <stop offset="100%" style="stop-color:#D4C4A8"/>
    </linearGradient>
  </defs>
  <circle cx="8" cy="8" r="7" fill="url(#grad)"/>
  <path d="M8 4C5.79 4 4 5.79 4 8s1.79 4 4 4 4-1.79 4-4-1.79-4-4-4zm-.5 6.97V10c-.55 0-1-.45-1-1v-.5l-1.6-1.6c-.07.29-.11.59-.11.9 0 1.97 1.52 3.59 3.45 3.72 0 0 0 0 0 0v.45c0 0 0 0 0 0zm3.45-1.28c-.13.4-.5.69-.95.69h-.5v-1.5c0-.28-.22-.5-.5-.5H6v-1h1c.28 0 .5-.22.5-.5V6h1c.55 0 1-.45 1-1v-.2c1.46.6 2.5 2.03 2.5 3.7 0 1.04-.4 1.98-1.05 2.69z" fill="#0F0F0F"/>
</svg>
